<?xml version="1.0" standalone="no"?>
<!DOCTYPE svg PUBLIC "-//W3C//DTD SVG 20010904//EN"
 "http://www.w3.org/TR/2001/REC-SVG-20010904/DTD/svg10.dtd">
<svg version="1.0" xmlns="http://www.w3.org/2000/svg"
 width="2848.000000pt" height="599.000000pt" viewBox="0 0 2848.000000 599.000000"
 preserveAspectRatio="xMidYMid meet">

<g transform="translate(0.000000,599.000000) scale(0.100000,-0.100000)"
fill="#000000" stroke="none">
<path d="M785 5220 c-223 -39 -393 -217 -450 -473 -25 -114 -17 -303 19 -412
71 -222 232 -377 446 -431 58 -15 205 -17 1311 -23 l1246 -6 41 -29 c27 -19
51 -47 68 -82 24 -49 26 -63 22 -137 -4 -72 -8 -90 -34 -128 -17 -24 -50 -55
-74 -69 l-45 -25 -1292 -3 -1292 -2 -160 -226 c-89 -124 -161 -227 -161 -229
0 -3 839 -5 1863 -5 1824 0 1865 0 1941 20 107 27 169 63 252 145 54 53 81 90
112 155 63 129 77 191 76 355 -1 132 -3 146 -34 240 -59 173 -160 296 -300
366 -125 62 -105 61 -1395 58 -1093 -3 -1173 -2 -1214 14 -129 51 -196 177
-161 306 16 60 90 134 151 149 31 8 368 13 1107 18 l1063 7 174 221 c110 139
170 223 163 227 -17 11 -3383 9 -3443 -1z"/>
<path d="M15060 5214 c-100 -26 -198 -81 -269 -153 -77 -77 -111 -136 -143
-246 l-23 -80 0 -895 0 -895 585 0 585 0 5 835 c4 683 8 840 19 860 25 46 53
69 105 87 47 17 110 18 861 18 l810 0 3 -237 2 -238 -638 0 -638 0 -131 -187
-131 -188 766 -5 767 -5 5 -470 5 -470 579 -3 c457 -2 581 0 588 10 9 14 11
2221 2 2253 l-5 21 -1827 1 c-1532 1 -1836 -2 -1882 -13z"/>
<path d="M5970 5209 c-141 -29 -247 -72 -347 -140 -201 -138 -345 -374 -410
-671 -26 -119 -25 -438 1 -558 42 -191 117 -364 216 -498 163 -218 370 -344
640 -388 69 -11 298 -14 1192 -14 l1106 0 149 -160 148 -160 96 0 c53 0 198 3
322 7 l226 6 -254 249 -255 250 94 91 c241 235 361 563 343 932 -23 444 -296
860 -662 1009 -142 57 -110 56 -1387 55 -668 -1 -1192 -5 -1218 -10z m1890
-455 c331 -78 555 -587 399 -909 l-24 -50 -432 -3 c-238 -1 -433 -6 -432 -10
0 -4 90 -86 199 -182 110 -96 199 -178 200 -181 0 -13 -1141 -22 -1215 -10
-261 40 -436 283 -452 626 -7 145 19 273 81 400 73 149 173 242 322 297 56 22
77 23 459 28 781 11 825 11 895 -6z"/>
<path d="M9893 4428 c3 -781 3 -794 25 -877 87 -330 307 -518 687 -588 80 -15
227 -17 1390 -21 1380 -3 1395 -3 1530 44 206 72 413 277 503 497 69 171 66
122 69 970 l4 767 -581 0 -580 0 0 -722 c0 -796 0 -794 -62 -910 -39 -74 -108
-137 -179 -163 -52 -19 -79 -20 -689 -20 l-635 0 -66 32 c-118 59 -208 172
-243 309 -14 54 -16 156 -16 768 l0 706 -580 0 -581 0 4 -792z"/>
<path d="M19302 4083 l3 -1138 585 0 585 0 3 908 2 907 753 0 753 0 44 -22
c31 -16 54 -38 75 -72 28 -46 30 -56 30 -151 0 -95 -2 -105 -30 -151 -21 -34
-44 -56 -75 -71 -44 -23 -45 -23 -547 -23 -277 0 -503 -3 -503 -8 0 -4 98 -95
217 -202 234 -210 539 -483 748 -671 72 -64 213 -191 315 -283 l185 -165 580
0 580 0 -36 32 c-19 18 -186 164 -370 326 -669 590 -664 585 -637 592 12 4 47
7 77 8 74 1 250 28 346 52 88 22 206 81 274 137 64 52 136 156 173 247 31 77
32 86 33 225 0 123 -3 156 -22 215 -52 163 -168 301 -313 372 -161 78 -15 73
-2030 73 l-1800 0 2 -1137z"/>
<path d="M24735 5203 c-441 -94 -775 -563 -775 -1087 0 -547 341 -1018 835
-1153 l100 -28 1400 -2 1400 -2 190 230 c105 127 192 234 193 240 3 6 -419 8
-1150 7 -1102 -3 -1156 -2 -1218 16 -163 47 -319 147 -413 264 -114 141 -157
258 -157 425 0 349 182 606 460 648 55 9 339 10 1070 5 l995 -7 26 28 c27 29
319 399 333 421 6 9 -318 12 -1606 11 -1392 -1 -1623 -3 -1683 -16z"/>
<path d="M26484 4270 l-641 -5 -179 -173 c-98 -96 -183 -180 -187 -188 -7 -12
109 -14 808 -14 l817 0 189 187 c104 103 189 190 189 195 0 4 -80 7 -177 6
-98 -2 -466 -5 -819 -8z"/>
<path d="M2540 2244 c-140 -37 -252 -119 -339 -249 -134 -200 -157 -535 -55
-791 90 -229 261 -354 481 -354 189 0 343 82 447 239 93 140 129 269 130 471
1 170 -19 271 -80 397 -112 233 -348 349 -584 287z m175 -92 c163 -82 255
-315 255 -648 0 -279 -59 -468 -167 -536 -31 -19 -52 -23 -113 -23 -63 0 -82
4 -121 27 -98 58 -176 187 -219 363 -31 125 -38 364 -16 492 42 244 152 366
311 345 22 -2 54 -12 70 -20z"/>
<path d="M18636 2239 c-5 -18 -36 -372 -33 -376 2 -1 13 -4 26 -5 20 -3 25 7
50 82 56 172 65 180 214 180 l108 0 -3 -542 c-3 -581 -3 -584 -53 -606 -13 -6
-40 -14 -62 -17 -70 -12 -74 -15 -71 -43 l3 -27 283 0 283 -1 -3 30 c-3 27 -8
31 -45 38 -23 4 -55 14 -72 22 -49 26 -52 63 -49 631 l3 510 117 3 c156 4 155
5 189 -188 11 -59 18 -76 33 -78 26 -5 36 15 36 78 0 30 7 105 15 165 21 157
21 157 -12 142 -20 -8 -144 -13 -426 -15 -368 -3 -450 1 -509 23 -11 4 -19 2
-22 -6z"/>
<path d="M24026 2239 c-7 -21 -39 -369 -35 -373 2 -2 13 -6 25 -10 18 -5 23 2
43 66 32 101 69 176 92 188 11 6 66 9 126 8 l108 -3 3 -420 c3 -489 -6 -675
-32 -703 -15 -18 -50 -30 -128 -47 -22 -4 -28 -11 -28 -33 l0 -27 283 0 282 0
0 29 c0 28 -3 30 -55 40 -116 24 -110 -10 -110 631 l0 535 118 0 c110 0 120
-2 139 -22 22 -26 39 -78 48 -153 10 -85 14 -95 35 -95 10 0 21 4 25 9 3 6 12
78 20 162 8 84 18 168 21 187 l7 35 -34 -8 c-51 -12 -825 -18 -873 -7 -22 5
-49 13 -58 17 -11 4 -19 2 -22 -6z"/>
<path d="M323 2213 c-12 -32 3 -47 60 -61 98 -24 92 13 92 -582 0 -283 -4
-532 -8 -552 -9 -42 -27 -56 -90 -66 -38 -7 -42 -11 -45 -38 l-3 -30 263 0
263 1 0 30 c0 26 -4 30 -30 33 -55 5 -112 31 -124 58 -7 16 -11 102 -11 251
l0 225 146 -4 c169 -4 174 -6 195 -106 15 -68 18 -73 47 -66 22 6 22 7 22 230
l0 224 -25 0 c-19 0 -26 -7 -31 -27 -31 -141 -35 -143 -215 -143 l-139 0 0
249 c0 137 3 256 6 265 5 14 28 16 150 16 85 0 153 -5 168 -11 29 -14 49 -59
66 -149 15 -76 21 -85 47 -71 17 9 21 25 27 133 3 68 9 141 12 163 l6 40 -422
0 c-318 0 -424 -3 -427 -12z"/>
<path d="M4085 2209 c-10 -29 6 -47 46 -54 22 -4 52 -17 67 -30 l27 -23 8
-409 c8 -454 17 -537 67 -639 38 -77 110 -145 188 -176 49 -19 76 -22 187 -23
120 0 134 2 187 27 137 64 217 192 248 398 7 41 17 238 24 438 14 413 12 404
99 432 42 13 47 18 47 45 l0 30 -205 0 c-204 0 -206 0 -211 -22 -8 -31 0 -40
43 -48 71 -13 103 -32 120 -72 15 -33 17 -82 15 -393 -1 -266 -5 -374 -16
-432 -37 -193 -115 -271 -271 -271 -91 0 -161 29 -215 90 -78 89 -90 177 -90
660 0 351 0 352 23 378 12 14 42 31 67 38 40 11 45 16 45 41 l0 28 -248 2
c-219 1 -248 -1 -252 -15z"/>
<path d="M6070 2198 c0 -34 2 -36 46 -47 59 -15 91 -36 112 -75 15 -28 17 -68
14 -406 -2 -206 -7 -435 -11 -508 -10 -160 -19 -178 -102 -203 -48 -14 -54
-20 -57 -45 l-3 -29 218 0 218 0 0 29 c0 27 -4 30 -50 41 -131 30 -128 16
-133 528 -3 268 -1 422 5 428 9 9 374 -577 583 -935 l63 -108 45 6 c25 3 57 6
72 6 l27 0 6 573 c4 368 10 585 17 610 14 46 41 72 94 90 35 12 41 18 41 41
l0 27 -213 2 -212 2 0 -32 c0 -29 3 -32 43 -38 68 -11 104 -31 124 -67 16 -30
18 -69 21 -436 2 -295 0 -402 -8 -397 -6 4 -36 46 -67 93 -116 179 -434 683
-489 776 l-58 96 -105 0 c-58 0 -136 3 -173 7 l-68 6 0 -35z"/>
<path d="M8093 2213 c-12 -31 3 -48 52 -60 79 -20 92 -41 100 -175 11 -173 1
-928 -13 -960 -15 -36 -53 -59 -107 -66 -37 -4 -46 -9 -51 -28 -3 -12 -3 -27
0 -32 3 -5 126 -12 273 -16 306 -8 396 2 508 55 254 120 392 428 346 773 -34
255 -154 426 -349 499 -54 20 -74 21 -406 22 -261 0 -350 -3 -353 -12z m624
-98 c107 -48 188 -158 235 -320 20 -71 23 -101 22 -260 0 -200 -12 -271 -64
-380 -39 -81 -108 -158 -162 -180 -99 -39 -231 -8 -273 65 -19 33 -19 54 -20
558 0 613 -12 557 121 549 59 -3 98 -12 141 -32z"/>
<path d="M10110 2194 c0 -29 3 -31 55 -43 35 -8 60 -20 70 -34 13 -18 15 -95
15 -550 0 -602 2 -588 -72 -608 -24 -6 -49 -13 -55 -15 -7 -2 -13 -16 -13 -31
l0 -28 250 0 251 0 -3 29 c-3 25 -9 30 -51 41 -92 23 -92 22 -95 285 l-4 230
50 0 c34 0 54 -5 64 -17 9 -10 56 -99 106 -198 106 -211 157 -293 202 -325 46
-33 129 -50 242 -50 95 0 98 1 104 24 7 31 -1 46 -27 46 -39 0 -98 41 -141 97
-71 95 -170 257 -237 391 -56 112 -57 105 3 146 102 70 151 170 151 306 0 117
-23 179 -89 245 -80 79 -102 84 -469 87 l-307 3 0 -31z m520 -69 c33 -17 84
-72 103 -111 24 -47 40 -160 34 -234 -14 -164 -87 -228 -247 -218 l-55 3 -3
260 c-1 143 0 270 3 283 3 13 16 27 28 32 27 11 102 3 137 -15z"/>
<path d="M11874 2221 c-2 -2 -4 -15 -4 -28 0 -25 1 -26 69 -43 51 -13 83 -45
122 -122 42 -84 215 -497 233 -558 19 -63 23 -381 5 -443 -12 -45 -42 -66
-106 -75 -44 -7 -48 -9 -51 -37 l-3 -30 268 0 268 0 3 27 c3 23 -1 28 -25 34
-133 30 -130 22 -139 275 -8 232 -9 227 105 485 115 261 169 368 201 399 16
15 52 35 82 45 46 15 53 21 56 46 l3 29 -201 0 -200 0 0 -31 c0 -28 4 -32 36
-39 77 -14 89 -26 84 -84 -5 -57 -180 -481 -199 -481 -9 0 -5 -9 -125 289 -48
118 -86 224 -84 235 2 13 18 28 41 40 31 15 38 23 35 43 l-3 24 -233 2 c-129
1 -236 0 -238 -2z"/>
<path d="M14980 2194 c0 -30 3 -32 45 -38 59 -9 85 -32 96 -86 10 -55 11 -909
0 -1003 -8 -79 -21 -95 -88 -112 -43 -11 -48 -15 -51 -42 l-3 -29 263 0 263 1
0 29 c0 28 -3 30 -58 41 -34 7 -67 21 -80 34 l-22 22 -3 550 c-2 406 0 555 9
565 19 23 117 18 164 -9 113 -64 170 -253 131 -436 -27 -128 -90 -190 -194
-191 -41 0 -43 -1 -40 -27 10 -89 235 -54 342 53 158 160 160 489 3 630 -76
69 -102 73 -465 76 l-312 3 0 -31z"/>
<path d="M16660 2193 c0 -29 4 -33 42 -43 61 -17 82 -34 110 -93 23 -46 133
-383 218 -667 17 -58 42 -139 55 -180 13 -41 40 -135 61 -207 l37 -133 63 0
63 0 10 38 c51 185 188 619 205 647 7 11 48 125 91 252 91 273 112 313 182
338 61 23 67 28 60 57 l-6 23 -208 -1 -208 0 -3 -31 c-3 -29 -2 -30 59 -43 71
-15 99 -37 99 -79 0 -40 -49 -225 -61 -229 -5 -2 -9 -10 -9 -17 0 -14 -159
-537 -180 -589 -19 -50 -10 -75 -185 494 -124 403 -124 397 -41 420 42 12 46
15 46 44 l0 31 -250 0 -250 0 0 -32z"/>
<path d="M22263 2213 c-10 -27 3 -47 37 -55 63 -16 87 -29 99 -54 15 -33 15
-1032 1 -1086 -9 -30 -18 -39 -53 -52 -23 -8 -53 -17 -67 -18 -20 -2 -26 -9
-28 -33 l-3 -30 408 0 408 0 13 28 c18 37 46 136 77 267 25 108 23 130 -15
130 -13 0 -28 -25 -55 -94 -49 -125 -89 -193 -128 -217 -29 -18 -44 -20 -153
-16 -67 3 -131 10 -142 16 -12 6 -26 28 -32 49 -14 50 -14 994 1 1045 5 20 11
37 12 37 1 0 27 9 57 19 48 16 55 21 58 47 l3 29 -247 0 c-182 0 -248 -3 -251
-12z"/>
<path d="M25864 2221 c-2 -2 -4 -16 -4 -31 0 -24 5 -28 54 -39 97 -22 91 19
94 -565 2 -281 0 -525 -3 -543 -9 -52 -35 -75 -101 -88 -55 -11 -59 -13 -62
-42 l-3 -30 264 -7 c269 -8 316 -5 422 21 136 34 270 134 344 257 130 218 143
562 28 794 -42 86 -135 186 -207 222 -106 53 -119 55 -483 55 -186 0 -341 -2
-343 -4z m619 -104 c69 -32 108 -66 156 -138 129 -194 147 -595 37 -824 -66
-137 -144 -197 -257 -197 -80 0 -162 38 -180 85 -10 24 -14 156 -17 549 l-3
517 22 22 c20 20 28 21 106 16 58 -4 101 -14 136 -30z"/>
<path d="M20580 1158 c-87 -59 -95 -213 -14 -277 61 -48 149 -3 174 89 34 128
-69 249 -160 188z"/>
<path d="M27994 1170 c-31 -12 -72 -66 -84 -110 -17 -63 -3 -119 42 -164 35
-35 42 -38 79 -33 23 3 52 16 65 28 70 66 52 234 -30 273 -38 18 -42 18 -72 6z"/>
</g>
</svg>
