<?xml version="1.0" standalone="no"?>
<!DOCTYPE svg PUBLIC "-//W3C//DTD SVG 20010904//EN"
 "http://www.w3.org/TR/2001/REC-SVG-20010904/DTD/svg10.dtd">
<svg version="1.0" xmlns="http://www.w3.org/2000/svg"
 width="496.000000pt" height="503.000000pt" viewBox="0 0 496.000000 503.000000"
 preserveAspectRatio="xMidYMid meet">

<g transform="translate(0.000000,503.000000) scale(0.100000,-0.100000)"
fill="#ed3237" stroke="none">
<path d="M110 4067 c0 -777 1 -817 20 -891 55 -215 213 -383 435 -462 37 -13
95 -19 225 -23 l175 -6 3 -116 3 -116 -158 -6 c-107 -4 -181 -12 -228 -25
-185 -49 -349 -193 -425 -372 -49 -116 -49 -122 -50 -983 l0 -808 848 3 847 3
69 28 c105 42 177 90 250 167 122 130 176 277 176 482 l0 118 173 -2 172 -3 6
-150 c4 -117 10 -164 27 -212 65 -187 215 -337 406 -406 61 -22 62 -22 909
-25 l848 -3 -3 828 -3 828 -30 85 c-59 170 -171 297 -330 376 -111 54 -149 62
-342 71 l-153 6 0 118 0 117 173 4 c155 4 179 7 245 30 207 74 355 232 418
444 16 54 18 131 21 887 l4 827 -801 0 c-686 0 -812 -2 -878 -16 -218 -44
-398 -200 -482 -419 -19 -49 -24 -87 -29 -215 l-6 -155 -172 -3 -173 -2 0 114
c0 192 -37 315 -133 442 -78 103 -178 174 -312 221 l-80 28 -832 3 -833 3 0
-814z m1518 488 c90 -21 158 -59 223 -124 85 -85 139 -209 139 -318 l0 -43
-510 0 -510 0 0 -535 0 -535 -79 0 c-219 0 -400 139 -456 351 -12 44 -15 164
-15 637 l0 582 573 0 c469 0 583 -3 635 -15z m2892 -583 c0 -573 -1 -601 -20
-657 -67 -194 -238 -315 -447 -315 l-73 0 0 535 0 535 -511 0 -512 0 6 81 c13
189 153 351 349 403 43 12 164 15 631 15 l577 1 0 -598z m-2530 -567 l0 -405
-380 0 -380 0 0 405 0 405 380 0 380 0 0 -405z m658 -157 l2 -558 530 0 530 0
0 -120 0 -120 -530 0 -530 0 -2 -562 -3 -563 -170 0 -170 0 -3 563 -2 562
-535 0 -535 0 0 120 0 120 535 0 535 0 0 560 0 560 173 -2 172 -3 3 -557z
m1062 157 l0 -405 -375 0 -375 0 0 405 0 405 375 0 375 0 0 -405z m-2740
-1810 l0 -535 510 0 510 0 0 -37 c0 -59 -28 -161 -58 -217 -42 -78 -116 -147
-206 -192 l-80 -39 -613 -3 -614 -3 3 603 3 603 23 57 c35 85 102 170 173 219
84 57 154 78 262 78 l87 1 0 -535z m1018 133 l-3 -403 -375 0 -375 0 -3 403
-2 402 380 0 380 0 -2 -402z m1722 -3 l0 -405 -375 0 -375 0 0 405 0 405 375
0 375 0 0 -405z m551 362 c94 -45 177 -128 222 -224 l32 -68 3 -613 3 -613
-608 3 c-604 3 -608 3 -663 25 -112 46 -219 153 -260 260 -12 32 -25 91 -28
131 l-5 72 512 0 511 0 0 536 0 537 103 -5 c92 -4 110 -8 178 -41z"/>
</g>
</svg>
