<?xml version="1.0" encoding="UTF-8"?>
<svg xmlns="http://www.w3.org/2000/svg" xmlns:xlink="http://www.w3.org/1999/xlink" width="2000" height="2000" viewBox="0 0 2000 2000">
<path fill-rule="evenodd" fill="rgb(0%, 0%, 0%)" fill-opacity="1" d="M 0 0.078125 L 1999.921875 0.078125 L 1999.921875 2000 L 0 2000 L 0 0.078125 "/>
<path fill-rule="evenodd" fill="rgb(0%, 0%, 0%)" fill-opacity="1" d="M 1908.238281 1915.15625 L 1889.179688 1915.15625 C 1888.300781 1915.15625 1887.589844 1915.871094 1887.589844 1916.746094 L 1887.589844 1935.800781 C 1887.589844 1936.679688 1888.300781 1937.394531 1889.179688 1937.394531 L 1908.238281 1937.394531 C 1909.109375 1937.394531 1909.828125 1936.679688 1909.828125 1935.800781 L 1909.828125 1916.746094 C 1909.828125 1915.871094 1909.109375 1915.15625 1908.238281 1915.15625 "/>
<path fill-rule="evenodd" fill="rgb(0%, 0%, 0%)" fill-opacity="1" d="M 1865.28125 1916.171875 L 1847.089844 1916.171875 C 1846.261719 1916.171875 1845.578125 1916.855469 1845.578125 1917.691406 L 1845.578125 1935.875 C 1845.578125 1936.710938 1846.261719 1937.394531 1847.089844 1937.394531 L 1865.28125 1937.394531 C 1866.109375 1937.394531 1866.800781 1936.710938 1866.800781 1935.875 L 1866.800781 1917.691406 C 1866.800781 1916.855469 1866.109375 1916.171875 1865.28125 1916.171875 "/>
<path fill-rule="evenodd" fill="rgb(0%, 0%, 0%)" fill-opacity="1" d="M 1822.320312 1917.1875 L 1805.011719 1917.1875 C 1804.210938 1917.1875 1803.558594 1917.839844 1803.558594 1918.636719 L 1803.558594 1935.949219 C 1803.558594 1936.742188 1804.210938 1937.394531 1805.011719 1937.394531 L 1822.320312 1937.394531 C 1823.121094 1937.394531 1823.769531 1936.742188 1823.769531 1935.949219 L 1823.769531 1918.636719 C 1823.769531 1917.839844 1823.121094 1917.1875 1822.320312 1917.1875 "/>
<path fill-rule="evenodd" fill="rgb(0%, 0%, 0%)" fill-opacity="1" d="M 1779.371094 1918.207031 L 1762.929688 1918.207031 C 1762.171875 1918.207031 1761.550781 1918.824219 1761.550781 1919.582031 L 1761.550781 1936.019531 C 1761.550781 1936.777344 1762.171875 1937.394531 1762.929688 1937.394531 L 1779.371094 1937.394531 C 1780.121094 1937.394531 1780.738281 1936.777344 1780.738281 1936.019531 L 1780.738281 1919.582031 C 1780.738281 1918.824219 1780.121094 1918.207031 1779.371094 1918.207031 "/>
<path fill-rule="evenodd" fill="rgb(0%, 0%, 0%)" fill-opacity="1" d="M 1736.410156 1919.222656 L 1720.839844 1919.222656 C 1720.128906 1919.222656 1719.539062 1919.808594 1719.539062 1920.523438 L 1719.539062 1936.09375 C 1719.539062 1936.808594 1720.128906 1937.394531 1720.839844 1937.394531 L 1736.410156 1937.394531 C 1737.128906 1937.394531 1737.710938 1936.808594 1737.710938 1936.09375 L 1737.710938 1920.523438 C 1737.710938 1919.808594 1737.128906 1919.222656 1736.410156 1919.222656 "/>
<path fill-rule="evenodd" fill="rgb(0%, 0%, 0%)" fill-opacity="1" d="M 1693.460938 1920.238281 L 1678.761719 1920.238281 C 1678.078125 1920.238281 1677.53125 1920.792969 1677.53125 1921.46875 L 1677.53125 1936.167969 C 1677.53125 1936.84375 1678.078125 1937.394531 1678.761719 1937.394531 L 1693.460938 1937.394531 C 1694.128906 1937.394531 1694.679688 1936.84375 1694.679688 1936.167969 L 1694.679688 1921.46875 C 1694.679688 1920.792969 1694.128906 1920.238281 1693.460938 1920.238281 "/>
<path fill-rule="evenodd" fill="rgb(0%, 0%, 0%)" fill-opacity="1" d="M 1650.5 1921.257812 L 1636.671875 1921.257812 C 1636.039062 1921.257812 1635.519531 1921.777344 1635.519531 1922.414062 L 1635.519531 1936.238281 C 1635.519531 1936.875 1636.039062 1937.394531 1636.671875 1937.394531 L 1650.5 1937.394531 C 1651.140625 1937.394531 1651.648438 1936.875 1651.648438 1936.238281 L 1651.648438 1922.414062 C 1651.648438 1921.777344 1651.140625 1921.257812 1650.5 1921.257812 "/>
<path fill-rule="evenodd" fill="rgb(0%, 0%, 0%)" fill-opacity="1" d="M 1607.539062 1922.273438 L 1594.589844 1922.273438 C 1593.988281 1922.273438 1593.511719 1922.761719 1593.511719 1923.355469 L 1593.511719 1936.3125 C 1593.511719 1936.90625 1593.988281 1937.394531 1594.589844 1937.394531 L 1607.539062 1937.394531 C 1608.140625 1937.394531 1608.628906 1936.90625 1608.628906 1936.3125 L 1608.628906 1923.355469 C 1608.628906 1922.761719 1608.140625 1922.273438 1607.539062 1922.273438 "/>
<path fill-rule="evenodd" fill="rgb(0%, 0%, 0%)" fill-opacity="1" d="M 1564.589844 1923.292969 L 1552.5 1923.292969 C 1551.949219 1923.292969 1551.488281 1923.746094 1551.488281 1924.300781 L 1551.488281 1936.386719 C 1551.488281 1936.941406 1551.949219 1937.394531 1552.5 1937.394531 L 1564.589844 1937.394531 C 1565.140625 1937.394531 1565.601562 1936.941406 1565.601562 1936.386719 L 1565.601562 1924.300781 C 1565.601562 1923.746094 1565.140625 1923.292969 1564.589844 1923.292969 "/>
<path fill-rule="evenodd" fill="rgb(25.488281%, 27.43988%, 30.979919%)" fill-opacity="1" d="M 333.539062 1090.554688 C 629.28125 1194.503906 925.023438 1215.09375 1220.761719 1090.554688 L 1220.761719 1528.039062 C 1247.46875 1534.101562 1267.410156 1557.984375 1267.410156 1586.523438 C 1267.410156 1658.855469 299.269531 1745.117188 299.269531 1586.523438 C 299.269531 1562.601562 313.28125 1541.953125 333.539062 1532.328125 C 333.539062 1385.070312 333.539062 1237.8125 333.539062 1090.554688 "/>
<path fill="none" stroke-width="429.999" stroke-linecap="round" stroke-linejoin="round" stroke="rgb(25.488281%, 27.43988%, 30.979919%)" stroke-opacity="1" stroke-miterlimit="22.9256" d="M 3335.390625 9094.453125 C 6292.8125 8054.960938 9250.234375 7849.0625 12207.617188 9094.453125 L 12207.617188 4719.609375 C 12474.6875 4658.984375 12674.101562 4420.15625 12674.101562 4134.765625 C 12674.101562 3411.445312 2992.695312 2548.828125 2992.695312 4134.765625 C 2992.695312 4373.984375 3132.8125 4580.46875 3335.390625 4676.71875 C 3335.390625 6149.296875 3335.390625 7621.875 3335.390625 9094.453125 Z M 3335.390625 9094.453125 " transform="matrix(0.1, 0, 0, -0.1, 0, 2000)"/>
<path fill-rule="evenodd" fill="rgb(25.488281%, 27.43988%, 30.979919%)" fill-opacity="1" d="M 1529.199219 675.5 L 1529.199219 1112.988281 C 1555.910156 1119.046875 1575.839844 1142.929688 1575.839844 1171.472656 C 1575.839844 1201.144531 1412.929688 1233.144531 1220.761719 1249.628906 L 1220.761719 1090.554688 C 1213.828125 1093.472656 1206.898438 1096.285156 1199.96875 1099.046875 C 1193.210938 1069.621094 1170.140625 1046.429688 1140.78125 1039.5 C 1128.769531 1011.621094 1101.300781 991.980469 1069.160156 991.390625 C 1050.28125 948.378906 998.351562 930.980469 957.46875 953.859375 C 941.753906 915.949219 899.421875 895.828125 859.734375 908.5 C 844.339844 860.679688 788.855469 839.011719 745.21875 863.410156 C 729.464844 832.140625 697.070312 810.679688 659.664062 810.679688 C 653.621094 810.679688 647.707031 811.25 641.976562 812.320312 L 641.976562 596.761719 C 615.265625 590.699219 595.328125 566.808594 595.328125 538.269531 C 595.328125 465.941406 1563.46875 379.679688 1563.46875 538.269531 C 1563.46875 562.199219 1549.460938 582.851562 1529.199219 592.46875 L 1529.199219 675.5 "/>
<path fill="none" stroke-width="429.999" stroke-linecap="round" stroke-linejoin="round" stroke="rgb(25.488281%, 27.43988%, 30.979919%)" stroke-opacity="1" stroke-miterlimit="22.9256" d="M 15291.992188 13245 L 15291.992188 8870.117188 C 15559.101562 8809.53125 15758.398438 8570.703125 15758.398438 8285.273438 C 15758.398438 7988.554688 14129.296875 7668.554688 12207.617188 7503.710938 L 12207.617188 9094.453125 C 12138.28125 9065.273438 12068.984375 9037.148438 11999.6875 9009.53125 C 11932.109375 9303.789062 11701.40625 9535.703125 11407.8125 9605 C 11287.695312 9883.789062 11013.007812 10080.195312 10691.601562 10086.09375 C 10502.8125 10516.210938 9983.515625 10690.195312 9574.6875 10461.40625 C 9417.539062 10840.507812 8994.21875 11041.71875 8597.34375 10915 C 8443.398438 11393.203125 7888.554688 11609.882812 7452.1875 11365.898438 C 7294.648438 11678.59375 6970.703125 11893.203125 6596.640625 11893.203125 C 6536.210938 11893.203125 6477.070312 11887.5 6419.765625 11876.796875 L 6419.765625 14032.382812 C 6152.65625 14093.007812 5953.28125 14331.914062 5953.28125 14617.304688 C 5953.28125 15340.585938 15634.6875 16203.203125 15634.6875 14617.304688 C 15634.6875 14378.007812 15494.609375 14171.484375 15291.992188 14075.3125 Z M 15291.992188 13245 " transform="matrix(0.1, 0, 0, -0.1, 0, 2000)"/>
<path fill-rule="evenodd" fill="rgb(25.488281%, 27.43988%, 30.979919%)" fill-opacity="1" d="M 341.222656 1093.222656 C 341.183594 1092.203125 341.15625 1091.183594 341.15625 1090.15625 C 341.15625 1055.339844 363.523438 1025.746094 394.671875 1014.960938 C 397.578125 973.921875 431.609375 941.480469 473.304688 941.109375 C 484.066406 900.710938 524.769531 875 566.617188 883.78125 C 576.792969 841.828125 614.585938 810.679688 659.664062 810.679688 C 697.070312 810.679688 729.464844 832.140625 745.21875 863.410156 C 788.855469 839.011719 844.339844 860.679688 859.734375 908.5 C 899.421875 895.828125 941.753906 915.949219 957.46875 953.859375 C 998.351562 930.980469 1050.28125 948.378906 1069.160156 991.390625 C 1101.300781 991.980469 1128.769531 1011.621094 1140.78125 1039.5 C 1170.140625 1046.429688 1193.210938 1069.621094 1199.96875 1099.046875 C 913.722656 1213.035156 627.472656 1192.429688 341.222656 1093.222656 "/>
<path fill="none" stroke-width="429.999" stroke-linecap="round" stroke-linejoin="round" stroke="rgb(25.488281%, 27.43988%, 30.979919%)" stroke-opacity="1" stroke-miterlimit="22.9256" d="M 3412.226562 9067.773438 C 3411.835938 9077.96875 3411.5625 9088.164062 3411.5625 9098.4375 C 3411.5625 9446.601562 3635.234375 9742.539062 3946.71875 9850.390625 C 3975.78125 10260.78125 4316.09375 10585.195312 4733.046875 10588.90625 C 4840.664062 10992.890625 5247.695312 11250 5666.171875 11162.1875 C 5767.929688 11581.71875 6145.859375 11893.203125 6596.640625 11893.203125 C 6970.703125 11893.203125 7294.648438 11678.59375 7452.1875 11365.898438 C 7888.554688 11609.882812 8443.398438 11393.203125 8597.34375 10915 C 8994.21875 11041.71875 9417.539062 10840.507812 9574.6875 10461.40625 C 9983.515625 10690.195312 10502.8125 10516.210938 10691.601562 10086.09375 C 11013.007812 10080.195312 11287.695312 9883.789062 11407.8125 9605 C 11701.40625 9535.703125 11932.109375 9303.789062 11999.6875 9009.53125 C 9137.226562 7869.648438 6274.726562 8075.703125 3412.226562 9067.773438 Z M 3412.226562 9067.773438 " transform="matrix(0.1, 0, 0, -0.1, 0, 2000)"/>
<path fill-rule="nonzero" fill="rgb(25.488281%, 27.43988%, 30.979919%)" fill-opacity="1" d="M 491.582031 1403.140625 C 483.675781 1415.210938 467.484375 1418.589844 455.414062 1410.683594 C 443.34375 1402.777344 439.96875 1386.585938 447.871094 1374.515625 C 455.140625 1363.410156 463.796875 1353.128906 473.75 1343.972656 C 483.476562 1335.027344 494.363281 1327.167969 506.320312 1320.675781 C 522.039062 1312.136719 538.742188 1306.453125 555.785156 1303.445312 C 573.363281 1300.34375 591.046875 1300.183594 608.160156 1302.757812 C 622.4375 1304.898438 632.269531 1318.210938 630.128906 1332.484375 C 627.984375 1346.761719 614.671875 1356.597656 600.398438 1354.453125 C 588.632812 1352.683594 576.628906 1352.769531 564.851562 1354.84375 C 553.570312 1356.835938 542.257812 1360.738281 531.308594 1366.683594 C 523.015625 1371.1875 515.597656 1376.515625 509.101562 1382.492188 C 502.332031 1388.71875 496.472656 1395.667969 491.582031 1403.140625 Z M 968.167969 1458.90625 C 953.761719 1459.71875 942.742188 1472.054688 943.550781 1486.460938 C 944.363281 1500.863281 956.695312 1511.886719 971.101562 1511.074219 C 984.355469 1510.335938 997.585938 1507.976562 1010.488281 1503.933594 C 1023.101562 1499.984375 1035.351562 1494.484375 1046.949219 1487.378906 C 1062.210938 1478.035156 1075.480469 1466.410156 1086.609375 1453.15625 C 1098.078125 1439.480469 1107.058594 1424.246094 1113.390625 1408.140625 C 1118.671875 1394.707031 1112.058594 1379.53125 1098.628906 1374.253906 C 1085.191406 1368.972656 1070.019531 1375.582031 1064.738281 1389.015625 C 1060.390625 1400.089844 1054.308594 1410.445312 1046.628906 1419.605469 C 1039.261719 1428.378906 1030.230469 1436.222656 1019.601562 1442.730469 C 1011.558594 1447.660156 1003.230469 1451.421875 994.8125 1454.058594 C 986.03125 1456.808594 977.082031 1458.410156 968.167969 1458.90625 "/>
<path fill="none" stroke-width="429.999" stroke-linecap="round" stroke-linejoin="round" stroke="rgb(25.488281%, 27.43988%, 30.979919%)" stroke-opacity="1" stroke-miterlimit="2.61313" d="M 4915.820312 5968.59375 C 4836.757812 5847.890625 4674.84375 5814.101562 4554.140625 5893.164062 C 4433.4375 5972.226562 4399.6875 6134.140625 4478.710938 6254.84375 C 4551.40625 6365.898438 4637.96875 6468.710938 4737.5 6560.273438 C 4834.765625 6649.726562 4943.632812 6728.320312 5063.203125 6793.242188 C 5220.390625 6878.632812 5387.421875 6935.46875 5557.851562 6965.546875 C 5733.632812 6996.5625 5910.46875 6998.164062 6081.601562 6972.421875 C 6224.375 6951.015625 6322.695312 6817.890625 6301.289062 6675.15625 C 6279.84375 6532.382812 6146.71875 6434.023438 6003.984375 6455.46875 C 5886.328125 6473.164062 5766.289062 6472.304688 5648.515625 6451.5625 C 5535.703125 6431.640625 5422.578125 6392.617188 5313.085938 6333.164062 C 5230.15625 6288.125 5155.976562 6234.84375 5091.015625 6175.078125 C 5023.320312 6112.8125 4964.726562 6043.320312 4915.820312 5968.59375 Z M 9681.679688 5410.9375 C 9537.617188 5402.8125 9427.421875 5279.453125 9435.507812 5135.390625 C 9443.632812 4991.367188 9566.953125 4881.132812 9711.015625 4889.257812 C 9843.554688 4896.640625 9975.859375 4920.234375 10104.882812 4960.664062 C 10231.015625 5000.15625 10353.515625 5055.15625 10469.492188 5126.210938 C 10622.109375 5219.648438 10754.804688 5335.898438 10866.09375 5468.4375 C 10980.78125 5605.195312 11070.585938 5757.539062 11133.90625 5918.59375 C 11186.71875 6052.929688 11120.585938 6204.6875 10986.289062 6257.460938 C 10851.914062 6310.273438 10700.195312 6244.179688 10647.382812 6109.84375 C 10603.90625 5999.101562 10543.085938 5895.546875 10466.289062 5803.945312 C 10392.617188 5716.210938 10302.304688 5637.773438 10196.015625 5572.695312 C 10115.585938 5523.398438 10032.304688 5485.78125 9948.125 5459.414062 C 9860.3125 5431.914062 9770.820312 5415.898438 9681.679688 5410.9375 Z M 9681.679688 5410.9375 " transform="matrix(0.1, 0, 0, -0.1, 0, 2000)"/>
<path fill-rule="evenodd" fill="rgb(91.796875%, 91.796875%, 91.796875%)" fill-opacity="1" d="M 395.945312 1047.355469 C 691.683594 1151.300781 987.425781 1171.894531 1283.171875 1047.355469 L 1283.171875 1484.839844 C 1309.871094 1490.898438 1329.808594 1514.78125 1329.808594 1543.324219 C 1329.808594 1615.652344 361.671875 1701.914062 361.671875 1543.324219 C 361.671875 1519.398438 375.683594 1498.75 395.945312 1489.125 C 395.945312 1341.867188 395.945312 1194.609375 395.945312 1047.355469 "/>
<path fill-rule="evenodd" fill="rgb(82.421875%, 82.421875%, 82.03125%)" fill-opacity="1" d="M 395.945312 1047.355469 C 691.683594 1151.300781 987.425781 1171.894531 1283.171875 1047.355469 L 1283.171875 1115.011719 C 998.757812 1224.164062 714.351562 1201.316406 429.941406 1101.355469 C 429.941406 1248.609375 429.941406 1395.867188 429.941406 1543.125 C 412.308594 1551.503906 399.410156 1568.234375 396.363281 1588.210938 C 374.25 1576.140625 361.671875 1561.324219 361.671875 1543.324219 C 361.671875 1519.398438 375.683594 1498.75 395.945312 1489.125 C 395.945312 1341.867188 395.945312 1194.609375 395.945312 1047.355469 Z M 1317.171875 1506.484375 C 1325.078125 1516.636719 1329.800781 1529.394531 1329.808594 1543.257812 C 1325.820312 1541.335938 1321.589844 1539.84375 1317.171875 1538.839844 L 1317.171875 1506.484375 "/>
<path fill-rule="evenodd" fill="rgb(84.375%, 84.375%, 84.764099%)" fill-opacity="1" d="M 1591.601562 632.300781 L 1591.601562 1069.785156 C 1618.308594 1075.847656 1638.25 1099.730469 1638.25 1128.269531 C 1638.25 1157.941406 1475.328125 1189.941406 1283.171875 1206.429688 L 1283.171875 1047.355469 C 1276.238281 1050.273438 1269.308594 1053.085938 1262.378906 1055.84375 C 1255.609375 1026.421875 1232.539062 1003.230469 1203.179688 996.300781 C 1191.179688 968.421875 1163.699219 948.78125 1131.558594 948.191406 C 1112.679688 905.179688 1060.75 887.78125 1019.871094 910.660156 C 1004.160156 872.75 961.824219 852.628906 922.136719 865.289062 C 906.738281 817.46875 851.257812 795.808594 807.621094 820.210938 C 791.867188 788.929688 759.472656 767.480469 722.066406 767.480469 C 716.023438 767.480469 710.109375 768.039062 704.378906 769.121094 L 704.378906 553.558594 C 677.671875 547.5 657.730469 523.609375 657.730469 495.070312 C 657.730469 422.738281 1625.871094 336.480469 1625.871094 495.070312 C 1625.871094 518.988281 1611.859375 539.640625 1591.601562 549.269531 L 1591.601562 632.300781 "/>
<path fill-rule="evenodd" fill="rgb(75.78125%, 75.193787%, 76.171875%)" fill-opacity="1" d="M 1625.601562 1091.433594 C 1633.511719 1101.582031 1638.230469 1114.34375 1638.25 1128.203125 C 1634.261719 1126.285156 1630.019531 1124.789062 1625.601562 1123.785156 Z M 1317.171875 1203.320312 C 1305.949219 1204.40625 1294.609375 1205.445312 1283.171875 1206.429688 L 1283.171875 1080.914062 C 1289.378906 1089.433594 1293.941406 1099.234375 1296.378906 1109.84375 C 1303.308594 1107.085938 1310.238281 1104.273438 1317.171875 1101.355469 Z M 738.378906 768.871094 C 733.074219 767.960938 727.628906 767.480469 722.066406 767.480469 C 716.023438 767.480469 710.109375 768.039062 704.378906 769.121094 L 704.378906 585.910156 C 712.738281 596.628906 724.664062 604.441406 738.378906 607.558594 Z M 691.730469 549.140625 C 671.617188 539.460938 657.730469 518.890625 657.730469 495.070312 C 657.730469 422.738281 1625.871094 336.480469 1625.871094 495.070312 C 1625.871094 498.171875 1625.628906 501.210938 1625.179688 504.191406 C 1452.46875 409.910156 691.730469 484.949219 691.730469 549.070312 L 691.730469 549.140625 "/>
<path fill-rule="evenodd" fill="rgb(34.130859%, 34.521484%, 34.910583%)" fill-opacity="1" d="M 403.621094 1050.019531 C 403.585938 1049.003906 403.558594 1047.980469 403.558594 1046.953125 C 403.558594 1012.136719 425.925781 982.550781 457.074219 971.761719 C 459.980469 930.71875 494.015625 898.28125 535.707031 897.910156 C 546.46875 857.511719 587.171875 831.789062 629.019531 840.578125 C 639.195312 798.628906 676.988281 767.480469 722.066406 767.480469 C 759.472656 767.480469 791.867188 788.929688 807.621094 820.210938 C 851.257812 795.808594 906.738281 817.46875 922.136719 865.289062 C 961.824219 852.628906 1004.160156 872.75 1019.871094 910.660156 C 1060.75 887.78125 1112.679688 905.179688 1131.558594 948.191406 C 1163.699219 948.78125 1191.179688 968.421875 1203.179688 996.300781 C 1232.539062 1003.230469 1255.609375 1026.421875 1262.378906 1055.84375 C 976.125 1169.835938 689.875 1149.230469 403.621094 1050.019531 "/>
<path fill-rule="evenodd" fill="rgb(26.268005%, 26.268005%, 26.268005%)" fill-opacity="1" d="M 403.621094 1050.019531 C 403.585938 1049.003906 403.558594 1047.980469 403.558594 1046.953125 C 403.558594 1012.136719 425.925781 982.550781 457.074219 971.761719 C 459.980469 930.71875 494.015625 898.28125 535.707031 897.910156 C 546.46875 857.511719 587.171875 831.789062 629.019531 840.578125 C 639.195312 798.628906 676.988281 767.480469 722.066406 767.480469 C 759.472656 767.480469 791.867188 788.929688 807.621094 820.210938 C 851.257812 795.808594 906.738281 817.46875 922.136719 865.289062 C 961.824219 852.628906 1004.160156 872.75 1019.871094 910.660156 C 1060.75 887.78125 1112.679688 905.179688 1131.558594 948.191406 C 1163.699219 948.78125 1191.179688 968.421875 1203.179688 996.300781 C 1232.539062 1003.230469 1255.609375 1026.421875 1262.378906 1055.84375 C 1260.601562 1056.554688 1258.820312 1057.234375 1257.039062 1057.933594 C 1250.871094 1054.550781 1244.210938 1051.957031 1237.179688 1050.300781 C 1225.179688 1022.421875 1197.699219 1002.777344 1165.558594 1002.1875 C 1146.679688 959.179688 1094.75 941.78125 1053.871094 964.660156 C 1038.160156 926.75 995.824219 906.628906 956.136719 919.289062 C 940.738281 871.46875 885.257812 849.808594 841.621094 874.210938 C 825.867188 842.929688 793.472656 821.480469 756.066406 821.480469 C 710.988281 821.480469 673.195312 852.628906 663.019531 894.578125 C 621.171875 885.789062 580.46875 911.511719 569.707031 951.910156 C 528.015625 952.28125 493.980469 984.71875 491.074219 1025.757812 C 471.761719 1032.445312 455.828125 1046.367188 446.503906 1064.277344 C 432.210938 1059.722656 417.917969 1054.972656 403.621094 1050.019531 "/>
<path fill-rule="nonzero" fill="rgb(48.631287%, 47.459412%, 48.631287%)" fill-opacity="1" d="M 553.984375 1359.9375 C 546.078125 1372.011719 529.886719 1375.386719 517.816406 1367.480469 C 505.746094 1359.578125 502.371094 1343.382812 510.273438 1331.3125 C 517.542969 1320.207031 526.199219 1309.929688 536.152344 1300.769531 C 545.878906 1291.824219 556.765625 1283.96875 568.722656 1277.472656 C 584.441406 1268.933594 601.144531 1263.25 618.1875 1260.242188 C 635.765625 1257.144531 653.449219 1256.980469 670.5625 1259.554688 C 684.839844 1261.699219 694.671875 1275.007812 692.53125 1289.285156 C 690.386719 1303.558594 677.074219 1313.394531 662.800781 1311.25 C 651.035156 1309.480469 639.027344 1309.566406 627.253906 1311.644531 C 615.972656 1313.632812 604.660156 1317.535156 593.710938 1323.480469 C 585.417969 1327.984375 578 1333.3125 571.503906 1339.289062 C 564.734375 1345.519531 558.875 1352.46875 553.984375 1359.9375 Z M 1030.570312 1415.707031 C 1016.160156 1416.515625 1005.140625 1428.851562 1005.949219 1443.257812 C 1006.761719 1457.664062 1019.101562 1468.683594 1033.5 1467.871094 C 1046.761719 1467.132812 1059.988281 1464.777344 1072.890625 1460.734375 C 1085.511719 1456.78125 1097.75 1451.285156 1109.359375 1444.175781 C 1124.609375 1434.832031 1137.878906 1423.210938 1149.011719 1409.953125 C 1160.480469 1396.28125 1169.46875 1381.046875 1175.789062 1364.9375 C 1181.078125 1351.503906 1174.460938 1336.332031 1161.03125 1331.050781 C 1147.601562 1325.769531 1132.421875 1332.378906 1127.140625 1345.8125 C 1122.789062 1356.886719 1116.71875 1367.242188 1109.03125 1376.402344 C 1101.671875 1385.175781 1092.628906 1393.023438 1082.011719 1399.53125 C 1073.960938 1404.460938 1065.640625 1408.21875 1057.210938 1410.859375 C 1048.429688 1413.605469 1039.488281 1415.207031 1030.570312 1415.707031 "/>
<path fill-rule="nonzero" fill="rgb(34.130859%, 34.521484%, 34.910583%)" fill-opacity="1" d="M 515.636719 1365.890625 C 505.367188 1357.550781 502.867188 1342.621094 510.273438 1331.3125 C 517.542969 1320.207031 526.199219 1309.929688 536.152344 1300.769531 C 545.878906 1291.824219 556.765625 1283.96875 568.722656 1277.472656 C 584.441406 1268.933594 601.144531 1263.25 618.1875 1260.242188 C 635.765625 1257.144531 653.449219 1256.980469 670.5625 1259.554688 C 684.839844 1261.699219 694.671875 1275.007812 692.53125 1289.285156 C 692.4375 1289.910156 692.320312 1290.523438 692.183594 1291.128906 C 688.671875 1288.265625 684.371094 1286.277344 679.5625 1285.554688 C 662.449219 1282.980469 644.765625 1283.144531 627.1875 1286.242188 C 610.144531 1289.25 593.441406 1294.933594 577.722656 1303.472656 C 565.765625 1309.96875 554.878906 1317.824219 545.152344 1326.769531 C 535.199219 1335.929688 526.542969 1346.207031 519.273438 1357.3125 C 517.507812 1360.011719 516.304688 1362.917969 515.636719 1365.890625 Z M 1030.570312 1415.707031 C 1016.160156 1416.515625 1005.140625 1428.851562 1005.949219 1443.257812 C 1006.378906 1450.890625 1010.050781 1457.574219 1015.539062 1462.050781 C 1018.039062 1450.945312 1027.640625 1442.378906 1039.570312 1441.707031 C 1048.488281 1441.207031 1057.429688 1439.605469 1066.210938 1436.859375 C 1074.640625 1434.21875 1082.960938 1430.460938 1091.011719 1425.53125 C 1101.628906 1419.023438 1110.671875 1411.175781 1118.03125 1402.402344 C 1125.71875 1393.242188 1131.789062 1382.886719 1136.140625 1371.8125 C 1141.421875 1358.378906 1156.601562 1351.769531 1170.03125 1357.050781 C 1172.609375 1358.0625 1174.929688 1359.441406 1176.96875 1361.101562 C 1179.769531 1348.730469 1173.199219 1335.835938 1161.03125 1331.050781 C 1147.601562 1325.769531 1132.421875 1332.378906 1127.140625 1345.8125 C 1122.789062 1356.886719 1116.71875 1367.242188 1109.03125 1376.402344 C 1101.671875 1385.175781 1092.628906 1393.023438 1082.011719 1399.53125 C 1073.960938 1404.460938 1065.640625 1408.21875 1057.210938 1410.859375 C 1048.429688 1413.605469 1039.488281 1415.207031 1030.570312 1415.707031 "/>
<path fill="none" stroke-width="220.001" stroke-linecap="round" stroke-linejoin="round" stroke="rgb(100%, 100%, 100%)" stroke-opacity="1" stroke-miterlimit="22.9256" d="M 3959.453125 9526.445312 C 6916.835938 8486.992188 9874.257812 8281.054688 12831.71875 9526.445312 L 12831.71875 5151.601562 C 13098.710938 5091.015625 13298.085938 4852.1875 13298.085938 4566.757812 C 13298.085938 3843.476562 3616.71875 2980.859375 3616.71875 4566.757812 C 3616.71875 4806.015625 3756.835938 5012.5 3959.453125 5108.75 C 3959.453125 6581.328125 3959.453125 8053.90625 3959.453125 9526.445312 Z M 3959.453125 9526.445312 " transform="matrix(0.1, 0, 0, -0.1, 0, 2000)"/>
<path fill="none" stroke-width="220.001" stroke-linecap="round" stroke-linejoin="round" stroke="rgb(100%, 100%, 100%)" stroke-opacity="1" stroke-miterlimit="22.9256" d="M 15916.015625 13676.992188 L 15916.015625 9302.148438 C 16183.085938 9241.523438 16382.5 9002.695312 16382.5 8717.304688 C 16382.5 8420.585938 14753.28125 8100.585938 12831.71875 7935.703125 L 12831.71875 9526.445312 C 12762.382812 9497.265625 12693.085938 9469.140625 12623.789062 9441.5625 C 12556.09375 9735.78125 12325.390625 9967.695312 12031.796875 10036.992188 C 11911.796875 10315.78125 11636.992188 10512.1875 11315.585938 10518.085938 C 11126.796875 10948.203125 10607.5 11122.1875 10198.710938 10893.398438 C 10041.601562 11272.5 9618.242188 11473.710938 9221.367188 11347.109375 C 9067.382812 11825.3125 8512.578125 12041.914062 8076.210938 11797.890625 C 7918.671875 12110.703125 7594.726562 12325.195312 7220.664062 12325.195312 C 7160.234375 12325.195312 7101.09375 12319.609375 7043.789062 12308.789062 L 7043.789062 14464.414062 C 6776.71875 14525 6577.304688 14763.90625 6577.304688 15049.296875 C 6577.304688 15772.617188 16258.710938 16635.195312 16258.710938 15049.296875 C 16258.710938 14810.117188 16118.59375 14603.59375 15916.015625 14507.304688 Z M 15916.015625 13676.992188 " transform="matrix(0.1, 0, 0, -0.1, 0, 2000)"/>
<path fill="none" stroke-width="220.001" stroke-linecap="round" stroke-linejoin="round" stroke="rgb(100%, 100%, 100%)" stroke-opacity="1" stroke-miterlimit="22.9256" d="M 4036.210938 9499.804688 C 4035.859375 9509.960938 4035.585938 9520.195312 4035.585938 9530.46875 C 4035.585938 9878.632812 4259.257812 10174.492188 4570.742188 10282.382812 C 4599.804688 10692.8125 4940.15625 11017.1875 5357.070312 11020.898438 C 5464.6875 11424.882812 5871.71875 11682.109375 6290.195312 11594.21875 C 6391.953125 12013.710938 6769.882812 12325.195312 7220.664062 12325.195312 C 7594.726562 12325.195312 7918.671875 12110.703125 8076.210938 11797.890625 C 8512.578125 12041.914062 9067.382812 11825.3125 9221.367188 11347.109375 C 9618.242188 11473.710938 10041.601562 11272.5 10198.710938 10893.398438 C 10607.5 11122.1875 11126.796875 10948.203125 11315.585938 10518.085938 C 11636.992188 10512.1875 11911.796875 10315.78125 12031.796875 10036.992188 C 12325.390625 9967.695312 12556.09375 9735.78125 12623.789062 9441.5625 C 9761.25 8301.640625 6898.75 8507.695312 4036.210938 9499.804688 Z M 4036.210938 9499.804688 " transform="matrix(0.1, 0, 0, -0.1, 0, 2000)"/>
<path fill="none" stroke-width="220" stroke-linecap="round" stroke-linejoin="round" stroke="rgb(100%, 100%, 100%)" stroke-opacity="1" stroke-miterlimit="2.61313" d="M 5539.84375 6400.625 C 5460.78125 6279.882812 5298.867188 6246.132812 5178.164062 6325.195312 C 5057.460938 6404.21875 5023.710938 6566.171875 5102.734375 6686.875 C 5175.429688 6797.929688 5261.992188 6900.703125 5361.523438 6992.304688 C 5458.789062 7081.757812 5567.65625 7160.3125 5687.226562 7225.273438 C 5844.414062 7310.664062 6011.445312 7367.5 6181.875 7397.578125 C 6357.65625 7428.554688 6534.492188 7430.195312 6705.625 7404.453125 C 6848.398438 7383.007812 6946.71875 7249.921875 6925.3125 7107.148438 C 6903.867188 6964.414062 6770.742188 6866.054688 6628.007812 6887.5 C 6510.351562 6905.195312 6390.273438 6904.335938 6272.539062 6883.554688 C 6159.726562 6863.671875 6046.601562 6824.648438 5937.109375 6765.195312 C 5854.179688 6720.15625 5780 6666.875 5715.039062 6607.109375 C 5647.34375 6544.804688 5588.75 6475.3125 5539.84375 6400.625 Z M 10305.703125 5842.929688 C 10161.601562 5834.84375 10051.40625 5711.484375 10059.492188 5567.421875 C 10067.617188 5423.359375 10191.015625 5313.164062 10335 5321.289062 C 10467.617188 5328.671875 10599.882812 5352.226562 10728.90625 5392.65625 C 10855.117188 5432.1875 10977.5 5487.148438 11093.59375 5558.242188 C 11246.09375 5651.679688 11378.789062 5767.890625 11490.117188 5900.46875 C 11604.804688 6037.1875 11694.6875 6189.53125 11757.890625 6350.625 C 11810.78125 6484.960938 11744.609375 6636.679688 11610.3125 6689.492188 C 11476.015625 6742.304688 11324.21875 6676.210938 11271.40625 6541.875 C 11227.890625 6431.132812 11167.1875 6327.578125 11090.3125 6235.976562 C 11016.71875 6148.242188 10926.289062 6069.765625 10820.117188 6004.6875 C 10739.609375 5955.390625 10656.40625 5917.8125 10572.109375 5891.40625 C 10484.296875 5863.945312 10394.882812 5847.929688 10305.703125 5842.929688 Z M 10305.703125 5842.929688 " transform="matrix(0.1, 0, 0, -0.1, 0, 2000)"/>
</svg>
